<svg width="22" height="18" viewBox="0 0 22 18" fill="none" xmlns="http://www.w3.org/2000/svg">
<path d="M15.6237 0C13.6877 0 11.9927 0.8325 10.9362 2.23969C9.87959 0.8325 8.18459 0 6.24866 0C4.70762 0.00173694 3.2302 0.614681 2.14052 1.70436C1.05084 2.79404 0.437894 4.27146 0.436157 5.8125C0.436157 12.375 10.1665 17.6869 10.5808 17.9062C10.6901 17.965 10.8121 17.9958 10.9362 17.9958C11.0602 17.9958 11.1823 17.965 11.2915 17.9062C11.7058 17.6869 21.4362 12.375 21.4362 5.8125C21.4344 4.27146 20.8215 2.79404 19.7318 1.70436C18.6421 0.614681 17.1647 0.00173694 15.6237 0ZM10.9362 16.3875C9.22428 15.39 1.93616 10.8459 1.93616 5.8125C1.93765 4.66921 2.39247 3.57317 3.2009 2.76475C4.00933 1.95632 5.10537 1.50149 6.24866 1.5C8.07209 1.5 9.60303 2.47125 10.2424 4.03125C10.2989 4.16881 10.395 4.28646 10.5186 4.36926C10.6421 4.45207 10.7874 4.49627 10.9362 4.49627C11.0849 4.49627 11.2302 4.45207 11.3538 4.36926C11.4773 4.28646 11.5734 4.16881 11.6299 4.03125C12.2693 2.46844 13.8002 1.5 15.6237 1.5C16.7669 1.50149 17.863 1.95632 18.6714 2.76475C19.4798 3.57317 19.9347 4.66921 19.9362 5.8125C19.9362 10.8384 12.6462 15.3891 10.9362 16.3875Z" fill="black"/>
</svg>
