<svg width="24" height="20" viewBox="0 0 24 20" fill="none" xmlns="http://www.w3.org/2000/svg">
<path d="M8.51103 14.9924H20.2333C20.6246 14.9924 20.9662 14.671 20.9662 14.239C20.9662 13.807 20.6246 13.4856 20.2333 13.4856H8.68161C8.10903 13.4856 7.7576 13.0836 7.66718 12.4712L7.50646 11.4164H20.253C21.7196 11.4164 22.473 10.5122 22.6839 9.07602L23.4875 3.76216C23.5088 3.63598 23.5222 3.50859 23.5277 3.38073C23.5277 2.89859 23.166 2.56688 22.6136 2.56688H6.21089L6.01975 1.29145C5.91946 0.517875 5.63832 0.125732 4.61403 0.125732H1.08775C0.686176 0.125732 0.344604 0.478018 0.344604 0.880018C0.344604 1.29145 0.686176 1.6433 1.08818 1.6433H4.48289L6.09003 12.6722C6.30132 14.0984 7.05432 14.9924 8.51103 14.9924ZM21.8199 4.08359L21.1076 8.89516C21.027 9.51788 20.6957 9.89973 20.103 9.89973L7.28618 9.90959L6.43203 4.08359H21.8199ZM9.30475 19.8743C9.51894 19.8761 9.73134 19.8352 9.92957 19.754C10.1278 19.6729 10.3079 19.5531 10.4594 19.4016C10.6108 19.2502 10.7306 19.0701 10.8118 18.8718C10.8929 18.6736 10.9338 18.4612 10.932 18.247C10.9329 18.0331 10.8915 17.8211 10.81 17.6232C10.7286 17.4254 10.6087 17.2456 10.4574 17.0943C10.3061 16.943 10.1264 16.8232 9.92855 16.7418C9.73071 16.6603 9.5187 16.6188 9.30475 16.6197C8.39103 16.6197 7.66761 17.3432 7.66761 18.247C7.66761 19.1612 8.39103 19.8743 9.30475 19.8743ZM18.6965 19.8743C19.6106 19.8743 20.3336 19.1612 20.3336 18.247C20.3336 17.3427 19.6106 16.6197 18.6965 16.6197C17.7926 16.6197 17.0593 17.3432 17.0593 18.247C17.0593 19.1612 17.7926 19.8743 18.6965 19.8743Z" fill="black"/>
</svg>
