<svg width="19" height="18" viewBox="0 0 19 18" fill="none" xmlns="http://www.w3.org/2000/svg">
<path d="M17.5362 18L11.2362 11.7C10.7362 12.1 10.1612 12.4167 9.51116 12.65C8.86116 12.8833 8.16949 13 7.43616 13C5.61949 13 4.08216 12.3707 2.82416 11.112C1.56616 9.85333 0.936824 8.316 0.936157 6.5C0.936157 4.68333 1.56549 3.146 2.82416 1.888C4.08282 0.63 5.62016 0.000666667 7.43616 0C9.25282 0 10.7905 0.629333 12.0492 1.888C13.3078 3.14667 13.9368 4.684 13.9362 6.5C13.9362 7.23333 13.8195 7.925 13.5862 8.575C13.3528 9.225 13.0362 9.8 12.6362 10.3L18.9362 16.6L17.5362 18ZM7.43616 11C8.68616 11 9.74882 10.5627 10.6242 9.688C11.4995 8.81333 11.9368 7.75067 11.9362 6.5C11.9362 5.25 11.4988 4.18767 10.6242 3.313C9.74949 2.43833 8.68682 2.00067 7.43616 2C6.18616 2 5.12382 2.43767 4.24916 3.313C3.37449 4.18833 2.93682 5.25067 2.93616 6.5C2.93616 7.75 3.37382 8.81267 4.24916 9.688C5.12449 10.5633 6.18682 11.0007 7.43616 11Z" fill="black"/>
</svg>
