<svg width="163" height="21" viewBox="0 0 163 21" fill="none" xmlns="http://www.w3.org/2000/svg">
<path d="M18.6558 0.343999L11.8518 13.504V20H7.06384V13.504L0.259843 0.343999H5.69184L9.49984 8.576L13.2798 0.343999H18.6558ZM29.881 20.196C28.033 20.196 26.3343 19.7667 24.785 18.908C23.2543 18.0493 22.0317 16.8547 21.117 15.324C20.221 13.7747 19.773 12.0387 19.773 10.116C19.773 8.19333 20.221 6.46667 21.117 4.936C22.0317 3.40533 23.2543 2.21067 24.785 1.352C26.3343 0.493333 28.033 0.0639997 29.881 0.0639997C31.729 0.0639997 33.4183 0.493333 34.949 1.352C36.4983 2.21067 37.7117 3.40533 38.589 4.936C39.485 6.46667 39.933 8.19333 39.933 10.116C39.933 12.0387 39.485 13.7747 38.589 15.324C37.693 16.8547 36.4797 18.0493 34.949 18.908C33.4183 19.7667 31.729 20.196 29.881 20.196ZM29.881 15.828C31.449 15.828 32.6997 15.3053 33.633 14.26C34.585 13.2147 35.061 11.8333 35.061 10.116C35.061 8.38 34.585 6.99867 33.633 5.972C32.6997 4.92667 31.449 4.404 29.881 4.404C28.2943 4.404 27.025 4.91733 26.073 5.944C25.1397 6.97067 24.673 8.36133 24.673 10.116C24.673 11.852 25.1397 13.2427 26.073 14.288C27.025 15.3147 28.2943 15.828 29.881 15.828ZM47.3007 0.343999V12.104C47.3007 13.28 47.5901 14.1853 48.1687 14.82C48.7474 15.4547 49.5967 15.772 50.7167 15.772C51.8367 15.772 52.6954 15.4547 53.2927 14.82C53.8901 14.1853 54.1887 13.28 54.1887 12.104V0.343999H58.9767V12.076C58.9767 13.8307 58.6034 15.3147 57.8567 16.528C57.1101 17.7413 56.1021 18.656 54.8327 19.272C53.5821 19.888 52.1821 20.196 50.6327 20.196C49.0834 20.196 47.6927 19.8973 46.4607 19.3C45.2474 18.684 44.2861 17.7693 43.5767 16.556C42.8674 15.324 42.5127 13.8307 42.5127 12.076V0.343999H47.3007ZM72.3629 20L68.2749 12.58H67.1269V20H62.3389V0.343999H70.3749C71.9242 0.343999 73.2402 0.614666 74.3229 1.156C75.4242 1.69733 76.2456 2.444 76.7869 3.396C77.3282 4.32933 77.5989 5.37467 77.5989 6.532C77.5989 7.83867 77.2256 9.00533 76.4789 10.032C75.7509 11.0587 74.6682 11.7867 73.2309 12.216L77.7669 20H72.3629ZM67.1269 9.192H70.0949C70.9722 9.192 71.6256 8.97733 72.0549 8.548C72.5029 8.11867 72.7269 7.512 72.7269 6.728C72.7269 5.98133 72.5029 5.39333 72.0549 4.964C71.6256 4.53467 70.9722 4.32 70.0949 4.32H67.1269V9.192ZM91.3261 16.304H97.5981V20H86.5381V0.343999H91.3261V16.304ZM109.178 20.196C107.33 20.196 105.631 19.7667 104.082 18.908C102.551 18.0493 101.329 16.8547 100.414 15.324C99.5179 13.7747 99.0699 12.0387 99.0699 10.116C99.0699 8.19333 99.5179 6.46667 100.414 4.936C101.329 3.40533 102.551 2.21067 104.082 1.352C105.631 0.493333 107.33 0.0639997 109.178 0.0639997C111.026 0.0639997 112.715 0.493333 114.246 1.352C115.795 2.21067 117.009 3.40533 117.886 4.936C118.782 6.46667 119.23 8.19333 119.23 10.116C119.23 12.0387 118.782 13.7747 117.886 15.324C116.99 16.8547 115.777 18.0493 114.246 18.908C112.715 19.7667 111.026 20.196 109.178 20.196ZM109.178 15.828C110.746 15.828 111.997 15.3053 112.93 14.26C113.882 13.2147 114.358 11.8333 114.358 10.116C114.358 8.38 113.882 6.99867 112.93 5.972C111.997 4.92667 110.746 4.404 109.178 4.404C107.591 4.404 106.322 4.91733 105.37 5.944C104.437 6.97067 103.97 8.36133 103.97 10.116C103.97 11.852 104.437 13.2427 105.37 14.288C106.322 15.3147 107.591 15.828 109.178 15.828ZM134.942 6.56C134.587 5.90667 134.074 5.412 133.402 5.076C132.748 4.72133 131.974 4.544 131.078 4.544C129.528 4.544 128.287 5.05733 127.354 6.084C126.42 7.092 125.954 8.44533 125.954 10.144C125.954 11.9547 126.439 13.3733 127.41 14.4C128.399 15.408 129.752 15.912 131.47 15.912C132.646 15.912 133.635 15.6133 134.438 15.016C135.259 14.4187 135.856 13.56 136.23 12.44H130.154V8.912H140.57V13.364C140.215 14.5587 139.608 15.6693 138.75 16.696C137.91 17.7227 136.836 18.5533 135.53 19.188C134.223 19.8227 132.748 20.14 131.106 20.14C129.164 20.14 127.428 19.72 125.898 18.88C124.386 18.0213 123.2 16.836 122.342 15.324C121.502 13.812 121.082 12.0853 121.082 10.144C121.082 8.20267 121.502 6.476 122.342 4.964C123.2 3.43333 124.386 2.248 125.898 1.408C127.41 0.549332 129.136 0.119999 131.078 0.119999C133.43 0.119999 135.408 0.689332 137.014 1.828C138.638 2.96667 139.711 4.544 140.234 6.56H134.942ZM152.518 20.196C150.67 20.196 148.971 19.7667 147.422 18.908C145.891 18.0493 144.668 16.8547 143.754 15.324C142.858 13.7747 142.41 12.0387 142.41 10.116C142.41 8.19333 142.858 6.46667 143.754 4.936C144.668 3.40533 145.891 2.21067 147.422 1.352C148.971 0.493333 150.67 0.0639997 152.518 0.0639997C154.366 0.0639997 156.055 0.493333 157.586 1.352C159.135 2.21067 160.348 3.40533 161.226 4.936C162.122 6.46667 162.57 8.19333 162.57 10.116C162.57 12.0387 162.122 13.7747 161.226 15.324C160.33 16.8547 159.116 18.0493 157.586 18.908C156.055 19.7667 154.366 20.196 152.518 20.196ZM152.518 15.828C154.086 15.828 155.336 15.3053 156.27 14.26C157.222 13.2147 157.698 11.8333 157.698 10.116C157.698 8.38 157.222 6.99867 156.27 5.972C155.336 4.92667 154.086 4.404 152.518 4.404C150.931 4.404 149.662 4.91733 148.71 5.944C147.776 6.97067 147.31 8.36133 147.31 10.116C147.31 11.852 147.776 13.2427 148.71 14.288C149.662 15.3147 150.931 15.828 152.518 15.828Z" fill="#22262A"/>
</svg>
